<svg width="24" height="24" viewBox="0 0 24 24" xmlns="http://www.w3.org/2000/svg"><g fill="none" fill-rule="evenodd"><path d="M22 0a2 2 0 012 2v20a2 2 0 01-2 2H2a2 2 0 01-2-2V2a2 2 0 012-2h20z" fill="#222525"/><path d="M11.956 18.912c.803 0 1.522-.108 2.156-.323.634-.215 1.17-.518 1.606-.908.436-.39.768-.858.995-1.405.227-.547.34-1.157.34-1.832 0-1.001-.259-1.813-.777-2.435-.517-.623-1.335-1.12-2.452-1.493-.28-.093-.561-.18-.847-.261a4.706 4.706 0 01-.768-.288 1.825 1.825 0 01-.55-.393.816.816 0 01-.209-.576c0-.338.14-.611.42-.82.278-.21.64-.315 1.081-.315.35 0 .71.073 1.082.218.373.146.745.37 1.118.672l1.361-2.67a9.007 9.007 0 00-2.042-.794 8.29 8.29 0 00-2.042-.27c-.699 0-1.33.104-1.894.313a4.046 4.046 0 00-1.431.882c-.39.378-.693.832-.908 1.361a4.664 4.664 0 00-.323 1.772c0 .652.102 1.19.305 1.614.204.425.472.777.803 1.056.332.28.71.504 1.135.672.425.17.858.323 1.3.463.373.128.69.244.952.35.261.104.474.217.637.34.163.122.279.255.349.4.07.146.104.318.104.516 0 .326-.136.617-.41.873-.273.256-.69.384-1.248.384a3.65 3.65 0 01-1.483-.332c-.5-.221-1.007-.559-1.519-1.012l-1.466 2.757c1.42.99 2.961 1.484 4.625 1.484z" fill="#FFF" fill-rule="nonzero"/></g></svg>