<svg width="24" height="24" xmlns="http://www.w3.org/2000/svg"><g fill="none" fill-rule="evenodd"><path d="M22 0a2 2 0 012 2v20a2 2 0 01-2 2H2a2 2 0 01-2-2V2a2 2 0 012-2h20z" fill="#222525"/><path d="M11.658 19.912c.924 0 1.752-.124 2.482-.372.73-.248 1.347-.596 1.85-1.045a4.404 4.404 0 001.145-1.618c.261-.63.392-1.334.392-2.11 0-1.153-.298-2.088-.895-2.805-.596-.717-1.537-1.29-2.824-1.718a23.484 23.484 0 00-.975-.302 5.42 5.42 0 01-.884-.332 2.102 2.102 0 01-.633-.452.94.94 0 01-.241-.663c0-.389.16-.704.482-.945.322-.241.737-.362 1.246-.362.402 0 .818.084 1.247.252.428.167.857.425 1.286.774l1.568-3.076a10.373 10.373 0 00-2.352-.914 9.546 9.546 0 00-2.352-.312c-.804 0-1.53.12-2.18.362-.65.241-1.2.58-1.649 1.015a4.534 4.534 0 00-1.045 1.568c-.248.61-.372 1.29-.372 2.04s.117 1.37.352 1.86c.234.488.542.894.924 1.215.382.322.818.58 1.307.774.49.194.988.372 1.497.533.43.147.794.281 1.096.402.301.12.546.251.734.392.187.14.321.295.402.462.08.168.12.365.12.593 0 .375-.157.71-.472 1.005-.315.295-.794.442-1.437.442a4.203 4.203 0 01-1.709-.382c-.576-.254-1.159-.643-1.749-1.165l-1.688 3.175c1.635 1.14 3.41 1.709 5.327 1.709z" fill="#FFF" fill-rule="nonzero"/></g></svg>